<svg xmlns="http://www.w3.org/2000/svg" xmlns:xlink="http://www.w3.org/1999/xlink" width="500" zoomAndPan="magnify" viewBox="0 0 375 374.999991" height="500" preserveAspectRatio="xMidYMid meet" version="1.0"><defs><g/></defs><g fill="#00ffe7" fill-opacity="1"><g transform="translate(21.488958, 272.639858)"><g><path d="M 134.6875 0 L 39.609375 0 C 33.796875 0 28.476562 -1.414062 23.65625 -4.25 C 18.84375 -7.09375 15.015625 -10.921875 12.171875 -15.734375 C 9.335938 -20.554688 7.921875 -25.875 7.921875 -31.6875 L 7.921875 -126.765625 C 7.921875 -132.566406 9.335938 -137.878906 12.171875 -142.703125 C 15.015625 -147.523438 18.84375 -151.351562 23.65625 -154.1875 C 28.476562 -157.03125 33.796875 -158.453125 39.609375 -158.453125 L 134.6875 -158.453125 C 140.488281 -158.453125 145.800781 -157.03125 150.625 -154.1875 C 155.445312 -151.351562 159.273438 -147.523438 162.109375 -142.703125 C 164.953125 -137.878906 166.375 -132.566406 166.375 -126.765625 L 166.375 -31.6875 C 166.375 -26.007812 164.953125 -20.757812 162.109375 -15.9375 C 159.273438 -11.125 155.476562 -7.265625 150.71875 -4.359375 C 145.96875 -1.453125 140.625 0 134.6875 0 Z M 39.609375 -126.765625 L 39.609375 -31.6875 L 134.6875 -31.6875 L 134.6875 -126.765625 Z M 39.609375 -126.765625 "/></g></g></g><g fill="#00ffe7" fill-opacity="1"><g transform="translate(195.785665, 272.639858)"><g><path d="M 134.6875 0 L 7.921875 0 L 7.921875 -158.453125 L 134.6875 -158.453125 C 140.488281 -158.453125 145.800781 -157.03125 150.625 -154.1875 C 155.445312 -151.351562 159.273438 -147.523438 162.109375 -142.703125 C 164.953125 -137.878906 166.375 -132.566406 166.375 -126.765625 L 166.375 -31.6875 C 166.375 -25.875 164.953125 -20.554688 162.109375 -15.734375 C 159.273438 -10.921875 155.445312 -7.09375 150.625 -4.25 C 145.800781 -1.414062 140.488281 0 134.6875 0 Z M 39.609375 -126.765625 L 39.609375 -31.6875 L 134.6875 -31.6875 L 134.6875 -126.765625 Z M 39.609375 -126.765625 "/></g></g></g><g fill="#ff00ff" fill-opacity="1"><g transform="translate(8.550539, 259.978093)"><g><path d="M 134.6875 0 L 39.609375 0 C 33.796875 0 28.476562 -1.414062 23.65625 -4.25 C 18.84375 -7.09375 15.015625 -10.921875 12.171875 -15.734375 C 9.335938 -20.554688 7.921875 -25.875 7.921875 -31.6875 L 7.921875 -126.765625 C 7.921875 -132.566406 9.335938 -137.878906 12.171875 -142.703125 C 15.015625 -147.523438 18.84375 -151.351562 23.65625 -154.1875 C 28.476562 -157.03125 33.796875 -158.453125 39.609375 -158.453125 L 134.6875 -158.453125 C 140.488281 -158.453125 145.800781 -157.03125 150.625 -154.1875 C 155.445312 -151.351562 159.273438 -147.523438 162.109375 -142.703125 C 164.953125 -137.878906 166.375 -132.566406 166.375 -126.765625 L 166.375 -31.6875 C 166.375 -26.007812 164.953125 -20.757812 162.109375 -15.9375 C 159.273438 -11.125 155.476562 -7.265625 150.71875 -4.359375 C 145.96875 -1.453125 140.625 0 134.6875 0 Z M 39.609375 -126.765625 L 39.609375 -31.6875 L 134.6875 -31.6875 L 134.6875 -126.765625 Z M 39.609375 -126.765625 "/></g></g></g><g fill="#ff00ff" fill-opacity="1"><g transform="translate(182.847245, 259.978093)"><g><path d="M 134.6875 0 L 7.921875 0 L 7.921875 -158.453125 L 134.6875 -158.453125 C 140.488281 -158.453125 145.800781 -157.03125 150.625 -154.1875 C 155.445312 -151.351562 159.273438 -147.523438 162.109375 -142.703125 C 164.953125 -137.878906 166.375 -132.566406 166.375 -126.765625 L 166.375 -31.6875 C 166.375 -25.875 164.953125 -20.554688 162.109375 -15.734375 C 159.273438 -10.921875 155.445312 -7.09375 150.625 -4.25 C 145.800781 -1.414062 140.488281 0 134.6875 0 Z M 39.609375 -126.765625 L 39.609375 -31.6875 L 134.6875 -31.6875 L 134.6875 -126.765625 Z M 39.609375 -126.765625 "/></g></g></g><g fill="#ff00ff" fill-opacity="1"><g transform="translate(12.055571, 262.931098)"><g><path d="M 134.6875 0 L 39.609375 0 C 33.796875 0 28.476562 -1.414062 23.65625 -4.25 C 18.84375 -7.09375 15.015625 -10.921875 12.171875 -15.734375 C 9.335938 -20.554688 7.921875 -25.875 7.921875 -31.6875 L 7.921875 -126.765625 C 7.921875 -132.566406 9.335938 -137.878906 12.171875 -142.703125 C 15.015625 -147.523438 18.84375 -151.351562 23.65625 -154.1875 C 28.476562 -157.03125 33.796875 -158.453125 39.609375 -158.453125 L 134.6875 -158.453125 C 140.488281 -158.453125 145.800781 -157.03125 150.625 -154.1875 C 155.445312 -151.351562 159.273438 -147.523438 162.109375 -142.703125 C 164.953125 -137.878906 166.375 -132.566406 166.375 -126.765625 L 166.375 -31.6875 C 166.375 -26.007812 164.953125 -20.757812 162.109375 -15.9375 C 159.273438 -11.125 155.476562 -7.265625 150.71875 -4.359375 C 145.96875 -1.453125 140.625 0 134.6875 0 Z M 39.609375 -126.765625 L 39.609375 -31.6875 L 134.6875 -31.6875 L 134.6875 -126.765625 Z M 39.609375 -126.765625 "/></g></g></g><g fill="#ff00ff" fill-opacity="1"><g transform="translate(186.352277, 262.931098)"><g><path d="M 134.6875 0 L 7.921875 0 L 7.921875 -158.453125 L 134.6875 -158.453125 C 140.488281 -158.453125 145.800781 -157.03125 150.625 -154.1875 C 155.445312 -151.351562 159.273438 -147.523438 162.109375 -142.703125 C 164.953125 -137.878906 166.375 -132.566406 166.375 -126.765625 L 166.375 -31.6875 C 166.375 -25.875 164.953125 -20.554688 162.109375 -15.734375 C 159.273438 -10.921875 155.445312 -7.09375 150.625 -4.25 C 145.800781 -1.414062 140.488281 0 134.6875 0 Z M 39.609375 -126.765625 L 39.609375 -31.6875 L 134.6875 -31.6875 L 134.6875 -126.765625 Z M 39.609375 -126.765625 "/></g></g></g><g fill="#00ffff" fill-opacity="1"><g transform="translate(15.553258, 264.790848)"><g><path d="M 134.6875 0 L 39.609375 0 C 33.796875 0 28.476562 -1.414062 23.65625 -4.25 C 18.84375 -7.09375 15.015625 -10.921875 12.171875 -15.734375 C 9.335938 -20.554688 7.921875 -25.875 7.921875 -31.6875 L 7.921875 -126.765625 C 7.921875 -132.566406 9.335938 -137.878906 12.171875 -142.703125 C 15.015625 -147.523438 18.84375 -151.351562 23.65625 -154.1875 C 28.476562 -157.03125 33.796875 -158.453125 39.609375 -158.453125 L 134.6875 -158.453125 C 140.488281 -158.453125 145.800781 -157.03125 150.625 -154.1875 C 155.445312 -151.351562 159.273438 -147.523438 162.109375 -142.703125 C 164.953125 -137.878906 166.375 -132.566406 166.375 -126.765625 L 166.375 -31.6875 C 166.375 -26.007812 164.953125 -20.757812 162.109375 -15.9375 C 159.273438 -11.125 155.476562 -7.265625 150.71875 -4.359375 C 145.96875 -1.453125 140.625 0 134.6875 0 Z M 39.609375 -126.765625 L 39.609375 -31.6875 L 134.6875 -31.6875 L 134.6875 -126.765625 Z M 39.609375 -126.765625 "/></g></g></g><g fill="#00ffff" fill-opacity="1"><g transform="translate(189.849965, 264.790848)"><g><path d="M 134.6875 0 L 7.921875 0 L 7.921875 -158.453125 L 134.6875 -158.453125 C 140.488281 -158.453125 145.800781 -157.03125 150.625 -154.1875 C 155.445312 -151.351562 159.273438 -147.523438 162.109375 -142.703125 C 164.953125 -137.878906 166.375 -132.566406 166.375 -126.765625 L 166.375 -31.6875 C 166.375 -25.875 164.953125 -20.554688 162.109375 -15.734375 C 159.273438 -10.921875 155.445312 -7.09375 150.625 -4.25 C 145.800781 -1.414062 140.488281 0 134.6875 0 Z M 39.609375 -126.765625 L 39.609375 -31.6875 L 134.6875 -31.6875 L 134.6875 -126.765625 Z M 39.609375 -126.765625 "/></g></g></g><g fill="#ffffff" fill-opacity="1"><g transform="translate(13.804415, 263.860973)"><g><path d="M 134.6875 0 L 39.609375 0 C 33.796875 0 28.476562 -1.414062 23.65625 -4.25 C 18.84375 -7.09375 15.015625 -10.921875 12.171875 -15.734375 C 9.335938 -20.554688 7.921875 -25.875 7.921875 -31.6875 L 7.921875 -126.765625 C 7.921875 -132.566406 9.335938 -137.878906 12.171875 -142.703125 C 15.015625 -147.523438 18.84375 -151.351562 23.65625 -154.1875 C 28.476562 -157.03125 33.796875 -158.453125 39.609375 -158.453125 L 134.6875 -158.453125 C 140.488281 -158.453125 145.800781 -157.03125 150.625 -154.1875 C 155.445312 -151.351562 159.273438 -147.523438 162.109375 -142.703125 C 164.953125 -137.878906 166.375 -132.566406 166.375 -126.765625 L 166.375 -31.6875 C 166.375 -26.007812 164.953125 -20.757812 162.109375 -15.9375 C 159.273438 -11.125 155.476562 -7.265625 150.71875 -4.359375 C 145.96875 -1.453125 140.625 0 134.6875 0 Z M 39.609375 -126.765625 L 39.609375 -31.6875 L 134.6875 -31.6875 L 134.6875 -126.765625 Z M 39.609375 -126.765625 "/></g></g></g><g fill="#ffffff" fill-opacity="1"><g transform="translate(188.101121, 263.860973)"><g><path d="M 134.6875 0 L 7.921875 0 L 7.921875 -158.453125 L 134.6875 -158.453125 C 140.488281 -158.453125 145.800781 -157.03125 150.625 -154.1875 C 155.445312 -151.351562 159.273438 -147.523438 162.109375 -142.703125 C 164.953125 -137.878906 166.375 -132.566406 166.375 -126.765625 L 166.375 -31.6875 C 166.375 -25.875 164.953125 -20.554688 162.109375 -15.734375 C 159.273438 -10.921875 155.445312 -7.09375 150.625 -4.25 C 145.800781 -1.414062 140.488281 0 134.6875 0 Z M 39.609375 -126.765625 L 39.609375 -31.6875 L 134.6875 -31.6875 L 134.6875 -126.765625 Z M 39.609375 -126.765625 "/></g></g></g></svg>