<svg xmlns="http://www.w3.org/2000/svg" xmlns:xlink="http://www.w3.org/1999/xlink" width="500" zoomAndPan="magnify" viewBox="0 0 375 374.999991" height="500" preserveAspectRatio="xMidYMid meet" version="1.0"><defs><filter x="0%" y="0%" width="100%" height="100%" id="d2a1c50f6c"><feColorMatrix values="0 0 0 0 1 0 0 0 0 1 0 0 0 0 1 0 0 0 1 0" color-interpolation-filters="sRGB"/></filter><clipPath id="1fe229f8a4"><path d="M 63.519531 8.335938 L 304 8.335938 L 304 352 L 63.519531 352 Z M 63.519531 8.335938 " clip-rule="nonzero"/></clipPath><mask id="69449a7a50"><g filter="url(#d2a1c50f6c)"><rect x="-37.5" width="450" fill="#000000" y="-37.499999" height="449.999989" fill-opacity="0.25"/></g></mask><clipPath id="fffd4015b8"><path d="M 0.839844 0.335938 L 240.601562 0.335938 L 240.601562 343.839844 L 0.839844 343.839844 Z M 0.839844 0.335938 " clip-rule="nonzero"/></clipPath><clipPath id="e65f3cd610"><rect x="0" width="241" y="0" height="344"/></clipPath><clipPath id="3ad39cb038"><path d="M 63.519531 189 L 73 189 L 73 205 L 63.519531 205 Z M 63.519531 189 " clip-rule="nonzero"/></clipPath><clipPath id="1149bc223b"><path d="M 63.519531 178 L 73 178 L 73 193 L 63.519531 193 Z M 63.519531 178 " clip-rule="nonzero"/></clipPath><clipPath id="9e52ff9882"><path d="M 63.519531 212 L 73 212 L 73 227 L 63.519531 227 Z M 63.519531 212 " clip-rule="nonzero"/></clipPath><clipPath id="debd463965"><path d="M 63.519531 200 L 73 200 L 73 216 L 63.519531 216 Z M 63.519531 200 " clip-rule="nonzero"/></clipPath><clipPath id="5574edb5db"><path d="M 63.519531 235 L 73 235 L 73 250 L 63.519531 250 Z M 63.519531 235 " clip-rule="nonzero"/></clipPath><clipPath id="2ca403bf72"><path d="M 63.519531 223 L 73 223 L 73 239 L 63.519531 239 Z M 63.519531 223 " clip-rule="nonzero"/></clipPath><clipPath id="ea96da2560"><path d="M 63.519531 146 L 73 146 L 73 182 L 63.519531 182 Z M 63.519531 146 " clip-rule="nonzero"/></clipPath><clipPath id="195f95cc0b"><path d="M 63.519531 246 L 73 246 L 73 282 L 63.519531 282 Z M 63.519531 246 " clip-rule="nonzero"/></clipPath><clipPath id="2185a9857f"><path d="M 199 355 L 255 355 L 255 369.085938 L 199 369.085938 Z M 199 355 " clip-rule="nonzero"/></clipPath></defs><g clip-path="url(#1fe229f8a4)"><g mask="url(#69449a7a50)"><g transform="matrix(1, 0, 0, 1, 63, 8)"><g clip-path="url(#e65f3cd610)"><g clip-path="url(#fffd4015b8)"><path fill="#00ffe7" d="M 240.261719 27.734375 L 240.261719 343.789062 L 40.773438 343.789062 L 13.351562 316.40625 L 13.351562 143.769531 L 0.976562 132.09375 L 0.976562 27.71875 L 28.34375 0.3125 L 212.84375 0.3125 Z M 240.261719 27.734375 " fill-opacity="1" fill-rule="evenodd"/></g></g></g></g></g><g clip-path="url(#3ad39cb038)"><path fill="#00ffe7" d="M 63.953125 204.210938 L 63.953125 198.183594 L 72.519531 189.726562 L 72.519531 195.757812 Z M 63.953125 204.210938 " fill-opacity="1" fill-rule="evenodd"/></g><g clip-path="url(#1149bc223b)"><path fill="#00ffe7" d="M 63.953125 192.699219 L 63.953125 186.671875 L 72.519531 178.222656 L 72.519531 184.277344 Z M 63.953125 192.699219 " fill-opacity="1" fill-rule="evenodd"/></g><g clip-path="url(#9e52ff9882)"><path fill="#00ffe7" d="M 63.953125 226.894531 L 63.953125 220.867188 L 72.519531 212.410156 L 72.519531 218.441406 Z M 63.953125 226.894531 " fill-opacity="1" fill-rule="evenodd"/></g><g clip-path="url(#debd463965)"><path fill="#00ffe7" d="M 63.953125 215.414062 L 63.953125 209.355469 L 72.519531 200.9375 L 72.519531 206.960938 Z M 63.953125 215.414062 " fill-opacity="1" fill-rule="evenodd"/></g><g clip-path="url(#5574edb5db)"><path fill="#00ffe7" d="M 63.953125 249.578125 L 63.953125 243.550781 L 72.519531 235.09375 L 72.519531 241.125 Z M 63.953125 249.578125 " fill-opacity="1" fill-rule="evenodd"/></g><g clip-path="url(#2ca403bf72)"><path fill="#00ffe7" d="M 63.953125 238.097656 L 63.953125 232.070312 L 72.519531 223.613281 L 72.519531 229.644531 Z M 63.953125 238.097656 " fill-opacity="1" fill-rule="evenodd"/></g><g clip-path="url(#ea96da2560)"><path fill="#00ffe7" d="M 63.601562 146.648438 L 72.160156 155.207031 L 72.160156 172.9375 L 63.601562 181.527344 Z M 63.601562 146.648438 " fill-opacity="1" fill-rule="evenodd"/></g><g clip-path="url(#195f95cc0b)"><path fill="#00ffe7" d="M 72.160156 281.175781 L 63.601562 272.617188 L 63.601562 254.867188 L 72.160156 246.296875 Z M 72.160156 281.175781 " fill-opacity="1" fill-rule="evenodd"/></g><path fill="#00ffe7" d="M 297.261719 38.210938 L 273.367188 14.3125 L 93.824219 14.3125 L 69.984375 38.183594 L 69.984375 137.511719 L 82.3125 149.148438 L 82.3125 321.898438 L 106.210938 345.785156 L 297.261719 345.785156 Z M 273.914062 13.484375 L 298.253906 37.824219 L 298.253906 346.730469 L 106.023438 346.730469 L 105.695312 346.585938 L 81.523438 322.417969 L 81.382812 322.085938 L 81.382812 149.59375 L 68.96875 137.945312 C 68.96875 104.554688 68.96875 71.175781 68.96875 37.800781 C 77.152344 29.644531 85.3125 21.484375 93.441406 13.320312 L 273.78125 13.320312 Z M 273.914062 13.484375 " fill-opacity="1" fill-rule="nonzero"/><path fill="#00ffe7" d="M 307.636719 356.136719 L 307.636719 297.945312 L 303.269531 297.945312 L 303.269531 351.761719 L 276.0625 351.761719 L 276.0625 356.136719 Z M 307.636719 356.136719 " fill-opacity="1" fill-rule="evenodd"/><path fill="#00ffe7" d="M 124.960938 351.761719 L 164.054688 351.761719 L 164.054688 356.136719 L 124.960938 356.136719 Z M 124.960938 351.761719 " fill-opacity="1" fill-rule="nonzero"/><path fill="#00ffe7" d="M 200.171875 363.160156 L 98.667969 363.160156 L 98.335938 363.023438 L 66.875 331.5625 L 66.875 273.609375 L 67.835938 273.609375 L 67.835938 331.140625 L 98.863281 362.199219 L 200.171875 362.199219 Z M 200.171875 363.160156 " fill-opacity="1" fill-rule="nonzero"/><g clip-path="url(#2185a9857f)"><path fill="#00ffe7" d="M 206.304688 355.972656 L 247.515625 355.972656 L 254.039062 362.476562 L 254.039062 362.890625 L 247.515625 369.382812 L 206.109375 369.382812 L 199.59375 362.890625 L 199.59375 362.476562 L 206.109375 355.972656 Z M 247.101562 356.941406 L 206.5 356.941406 L 200.773438 362.695312 L 206.5 368.421875 L 247.101562 368.421875 L 252.859375 362.695312 Z M 247.101562 356.941406 " fill-opacity="1" fill-rule="nonzero"/></g><path fill="#00ffe7" d="M 253.410156 362.199219 L 307.636719 362.199219 L 307.636719 363.160156 L 253.410156 363.160156 Z M 253.410156 362.199219 " fill-opacity="1" fill-rule="nonzero"/><path fill="#00ffe7" d="M 69.464844 73.96875 L 69.464844 38.378906 L 94.019531 13.816406 L 127.65625 13.816406 L 127.65625 17.699219 L 95.609375 17.699219 L 73.339844 39.96875 L 73.339844 73.96875 Z M 69.464844 73.96875 " fill-opacity="1" fill-rule="nonzero"/></svg>