<svg xmlns="http://www.w3.org/2000/svg" xmlns:xlink="http://www.w3.org/1999/xlink" width="500" zoomAndPan="magnify" viewBox="0 0 375 374.999991" height="500" preserveAspectRatio="xMidYMid meet" version="1.0"><defs><clipPath id="9917c7d64a"><path d="M 8.523438 8.523438 L 366.273438 8.523438 L 366.273438 366.273438 L 8.523438 366.273438 Z M 8.523438 8.523438 " clip-rule="nonzero"/></clipPath></defs><g clip-path="url(#9917c7d64a)"><path fill="#ffff00" d="M -267.839844 -268.800781 L -267.839844 -168.039062 C -267.839844 -168.039062 -245.675781 -168.039062 -245.675781 -168.039062 L -245.675781 -246.601562 L -170.957031 -246.601562 L -170.957031 -268.800781 Z M 551.578125 -268.800781 L 551.578125 -246.601562 L 626.339844 -246.601562 L 626.339844 -168.039062 L 648.539062 -168.039062 L 648.539062 -268.800781 Z M 626.339844 554.496094 L 626.339844 625.417969 L 551.578125 625.417969 L 551.578125 647.617188 L 648.539062 647.617188 L 648.539062 554.496094 Z M -245.675781 625.417969 L -245.675781 554.496094 L -267.878906 554.496094 L -267.878906 647.617188 L -170.957031 647.617188 L -170.957031 625.417969 Z M -245.675781 625.417969 " fill-opacity="1" fill-rule="nonzero"/></g><path fill="#ffff00" d="M 182.332031 44.164062 L 182.332031 140.609375 L 198.332031 140.609375 L 198.332031 36.164062 L 182.332031 36.164062 Z M 182.332031 44.164062 " fill-opacity="1" fill-rule="nonzero"/><path fill="#ffff00" d="M 45.128906 181.410156 L 36.246094 181.410156 L 36.246094 197.410156 L 141.53125 197.410156 L 141.53125 181.410156 Z M 45.128906 181.410156 " fill-opacity="1" fill-rule="nonzero"/><path fill="#ffff00" d="M 182.332031 181.410156 L 198.332031 181.410156 L 198.332031 197.410156 L 182.332031 197.410156 Z M 182.332031 181.410156 " fill-opacity="1" fill-rule="nonzero"/><path fill="#ffff00" d="M 335.574219 181.410156 L 239.132812 181.410156 L 239.132812 197.410156 L 344.453125 197.410156 L 344.453125 181.410156 Z M 335.574219 181.410156 " fill-opacity="1" fill-rule="nonzero"/><path fill="#ffff00" d="M 182.332031 254.167969 L 182.332031 342.613281 L 198.332031 342.613281 L 198.332031 238.167969 L 182.332031 238.167969 Z M 182.332031 254.167969 " fill-opacity="1" fill-rule="nonzero"/></svg>